<?xml version="1.0" encoding="UTF-8"?>
<svg width="103px" height="14px" viewBox="0 0 103 14" version="1.1" xmlns="http://www.w3.org/2000/svg" xmlns:xlink="http://www.w3.org/1999/xlink">
    <!-- Generator: Sketch 63.1 (92452) - https://sketch.com -->
    <title>Light Background_4</title>
    <desc>Created with Sketch.</desc>
    <defs>
        <polygon id="path-1" points="0.24 0.0874833887 13.8568605 0.0874833887 13.8568605 13.7043189 0.24 13.7043189"></polygon>
        <polygon id="path-3" points="0.120049834 0.0874833887 13.7369103 0.0874833887 13.7369103 13.7043189 0.120049834 13.7043189"></polygon>
        <polygon id="path-5" points="0 0.0874833887 13.6168106 0.0874833887 13.6168106 13.7043189 0 13.7043189"></polygon>
        <polygon id="path-7" points="0.230730897 0.0874833887 13.8478405 0.0874833887 13.8478405 13.7043189 0.230730897 13.7043189"></polygon>
    </defs>
    <g id="Light-Background_4" stroke="none" stroke-width="1" fill="none" fill-rule="evenodd">
        <g id="Group-2">
            <g id="Group-17" transform="translate(28.000000, 0.000000)">
                <path d="M61.9100581,7.06739203 C61.9100581,3.66174419 64.6803239,0.891727575 68.0857226,0.891727575 C71.4913704,0.891727575 74.2616362,3.66174419 74.2616362,7.06739203 C74.2616362,10.4730399 71.4913704,13.2433056 68.0857226,13.2433056 C64.6803239,13.2433056 61.9100581,10.4730399 61.9100581,7.06739203" id="Fill-1" fill="#FFFFFF"></path>
                <g id="Group-5" transform="translate(30.398671, 0.171603)">
                    <mask id="mask-2" fill="white">
                        <use xlink:href="#path-1"></use>
                    </mask>
                    <g id="Clip-4"></g>
                    <path d="M0.24,6.89578904 C0.24,3.14130399 3.29406977,0.0874833887 7.04855482,0.0874833887 C10.8030399,0.0874833887 13.8568605,3.14130399 13.8568605,6.89578904 C13.8568605,10.6502741 10.8030399,13.7043439 7.04855482,13.7043439 C3.29406977,13.7043439 0.24,10.6502741 0.24,6.89578904" id="Fill-3" fill="#00AA6C" mask="url(#mask-2)"></path>
                </g>
                <g id="Group-8" transform="translate(15.199336, 0.171603)">
                    <mask id="mask-4" fill="white">
                        <use xlink:href="#path-3"></use>
                    </mask>
                    <g id="Clip-7"></g>
                    <path d="M0.120049834,6.89578904 C0.120049834,3.14130399 3.1741196,0.0874833887 6.92835548,0.0874833887 C10.6830897,0.0874833887 13.7369103,3.14130399 13.7369103,6.89578904 C13.7369103,10.6502741 10.6830897,13.7043439 6.92835548,13.7043439 C3.1741196,13.7043439 0.120049834,10.6502741 0.120049834,6.89578904" id="Fill-6" fill="#00AA6C" mask="url(#mask-4)"></path>
                </g>
                <g id="Group-11" transform="translate(0.000000, 0.171603)">
                    <mask id="mask-6" fill="white">
                        <use xlink:href="#path-5"></use>
                    </mask>
                    <g id="Clip-10"></g>
                    <path d="M-4.9833887e-05,6.89578904 C-4.9833887e-05,3.14130399 3.0542691,0.0874833887 6.80850498,0.0874833887 C10.56299,0.0874833887 13.6168106,3.14130399 13.6168106,6.89578904 C13.6168106,10.6502741 10.56299,13.7043439 6.80850498,13.7043439 C3.0542691,13.7043439 -4.9833887e-05,10.6502741 -4.9833887e-05,6.89578904" id="Fill-9" fill="#00AA6C" mask="url(#mask-6)"></path>
                </g>
                <g id="Group-14" transform="translate(61.046512, 0.171603)">
                    <mask id="mask-8" fill="white">
                        <use xlink:href="#path-7"></use>
                    </mask>
                    <g id="Clip-13"></g>
                    <path d="M12.1554817,6.89578904 C12.1554817,4.0754402 9.85988372,1.77984219 7.03953488,1.77984219 C4.21843854,1.77984219 1.9230897,4.0754402 1.9230897,6.89578904 C1.9230897,9.71638704 4.21843854,11.9925498 7.03953488,11.9925498 C9.85988372,11.9925498 12.1554817,9.71638704 12.1554817,6.89578904 M0.230730897,6.89578904 C0.230730897,3.14130399 3.28480066,0.0874833887 7.03953488,0.0874833887 C10.7937708,0.0874833887 13.8478405,3.14130399 13.8478405,6.89578904 C13.8478405,10.6502741 10.7937708,13.7043439 7.03953488,13.7043439 C3.28480066,13.7043439 0.230730897,10.6502741 0.230730897,6.89578904" id="Fill-12" fill="#00AA6C" mask="url(#mask-8)"></path>
                </g>
                <path d="M45.9579817,7.05767442 C45.9579817,3.30318937 49.0123007,0.249119601 52.7665365,0.249119601 C56.5210216,0.249119601 59.5748422,3.30318937 59.5748422,7.05767442 C59.5748422,10.8121595 56.5210216,13.8662292 52.7665365,13.8662292 C49.0123007,13.8662292 45.9579817,10.8121595 45.9579817,7.05767442" id="Fill-15" fill="#00AA6C"></path>
            </g>
            <g id="Group" fill="#000000">
                <path d="M7.53142525,7.91843387 C7.53142525,8.96130186 6.64940001,9.80665621 5.56137044,9.80665621 C4.47334088,9.80665621 3.59131564,8.96130186 3.59131564,7.91843387 C3.59131564,6.87559906 4.47334088,6.03024419 5.56137044,6.03024419 C6.64922695,6.02948172 7.53170214,6.87413944 7.53246358,7.91677521 L7.53246358,7.91843387 L7.53142525,7.91843387 Z M16.6687139,6.03024471 C15.5806843,6.03024471 14.6986591,6.87559906 14.6986591,7.91843387 C14.6986591,8.96130186 15.5806843,9.80665621 16.6687139,9.80665621 C17.7567781,9.80665621 18.6387687,8.96130186 18.6387687,7.91843387 C18.6387687,6.87559906 17.7567781,6.03024471 16.6687139,6.03024471 L16.6687139,6.03024471 Z M16.6687139,11.5203872 C14.5931995,11.5203872 12.9106578,9.90776833 12.9106578,7.91843387 C12.9106578,5.92913259 14.5931995,4.31648058 16.6687139,4.31648058 C18.7442282,4.31648058 20.4267699,5.92913259 20.4267699,7.91843387 C20.4267699,9.90776833 18.7442282,11.5203872 16.6687139,11.5203872 L16.6687139,11.5203872 Z M11.1167727,7.81460155 C11.1167727,5.44437164 9.31700373,3.41051867 6.94580811,2.54005215 C9.61507316,1.47432778 12.6178146,1.47432778 15.2870451,2.54005215 C12.9151572,3.4108504 11.1167727,5.44437164 11.1167727,7.81460155 L11.1167727,7.81460155 Z M5.56240877,11.5203872 C3.48689443,11.5203872 1.80435271,9.90776833 1.80435271,7.91843387 C1.80435271,5.92913259 3.48689443,4.31648058 5.56240877,4.31648058 C7.63792312,4.31648058 9.32046483,5.92913259 9.32046483,7.91843387 C9.32046483,9.90776833 7.63792312,11.5203872 5.56240877,11.5203872 L5.56240877,11.5203872 Z M20.4129256,3.98474791 L22.23,2.08989092 L18.2016325,2.08989092 C13.9295693,-0.696630307 8.31435936,-0.696630307 4.04229621,2.08989092 L0.00354541241,2.08989092 L1.82061986,3.98474791 C-0.450204034,5.96064719 -0.619866871,9.32683808 1.44166465,11.5033361 C3.50319618,13.68 7.01527227,13.8424827 9.28609616,11.8665834 C9.3029863,11.8518876 9.31970339,11.8371255 9.33638586,11.8222971 L11.1167727,13.68 L12.8961212,11.824586 C13.9212627,12.7375807 15.2693243,13.244236 16.6687139,13.2424114 C19.7355894,13.2424114 22.2241161,10.859244 22.2241161,7.9197608 C22.2264351,6.42198781 21.5686541,4.99291666 20.4129256,3.98474791 L20.4129256,3.98474791 Z" id="Fill-3"></path>
            </g>
        </g>
    </g>
</svg>